<svg width="400" height="400" viewBox="0 0 400 400" fill="none" xmlns="http://www.w3.org/2000/svg">
  <rect width="400" height="400" rx="200" fill="#E5E7EB"/>
  <path d="M200 220C233.137 220 260 193.137 260 160C260 126.863 233.137 100 200 100C166.863 100 140 126.863 140 160C140 193.137 166.863 220 200 220Z" fill="#9CA3AF"/>
  <path d="M200 240C155.817 240 120 275.817 120 320V340C120 351.046 128.954 360 140 360H260C271.046 360 280 351.046 280 340V320C280 275.817 244.183 240 200 240Z" fill="#9CA3AF"/>
</svg>